<?xml version="1.0" standalone="no"?>
<!DOCTYPE svg PUBLIC "-//W3C//DTD SVG 20010904//EN"
 "http://www.w3.org/TR/2001/REC-SVG-20010904/DTD/svg10.dtd">
<svg version="1.0" xmlns="http://www.w3.org/2000/svg"
 width="149.000000pt" height="149.000000pt" viewBox="0 0 149.000000 149.000000"
 preserveAspectRatio="xMidYMid meet">
<metadata>
Created by potrace 1.11, written by Peter Selinger 2001-2013
</metadata>
<g transform="translate(0.000000,149.000000) scale(0.100000,-0.100000)"
fill="#000000" stroke="none">
<path d="M638 1465 c-1 -2 -16 -5 -33 -8 -258 -41 -500 -257 -576 -514 -27
-89 -33 -252 -12 -347 55 -261 260 -472 533 -551 100 -29 300 -27 400 4 207
64 364 190 454 361 93 179 110 394 43 576 -83 226 -268 392 -517 461 -47 14
-282 28 -292 18z"/>
</g>
</svg>
